<svg xmlns="http://www.w3.org/2000/svg" viewBox="0 0 110 110">
<path d="M -10.694 47.606 L 120.806 47.606 C 123.567 47.606 125.806 49.845 125.806 52.606 L 125.806 57.606 C 125.806 60.367 123.567 62.606 120.806 62.606 L -10.694 62.606 C -13.456 62.606 -15.694 60.367 -15.694 57.606 L -15.694 52.606 C -15.694 49.845 -13.456 47.606 -10.694 47.606 Z M 52.606 -15.694 L 57.606 -15.694 C 60.367 -15.694 62.606 -13.455 62.606 -10.694 L 62.606 120.806 C 62.606 123.567 60.367 125.806 57.606 125.806 L 52.606 125.806 C 49.844 125.806 47.606 123.567 47.606 120.806 L 47.606 -10.694 C 47.606 -13.455 49.844 -15.694 52.606 -15.694 Z" style="fill: rgb(236, 75, 75); stroke: rgb(236, 75, 75); stroke-width: 1; transform-box: fill-box; transform-origin: 50% 50%;" transform="matrix(0.707107, 0.707107, -0.707107, 0.707107, -0.000003, -0.000004)"></path>
</svg>